<svg width="20" height="20" viewBox="0 0 20 20" fill="none" xmlns="http://www.w3.org/2000/svg">
<path fill-rule="evenodd" clip-rule="evenodd" d="M3.33337 3.33341C3.11236 3.33341 2.9004 3.42121 2.74412 3.57749C2.58784 3.73377 2.50004 3.94573 2.50004 4.16675V8.33342C2.50004 8.55443 2.58784 8.76639 2.74412 8.92267C2.9004 9.07895 3.11236 9.16675 3.33337 9.16675H5.00004C5.46028 9.16675 5.83337 9.53984 5.83337 10.0001C5.83337 10.4603 5.46028 10.8334 5.00004 10.8334H3.33337C2.67033 10.8334 2.03445 10.57 1.56561 10.1012C1.09677 9.63234 0.833374 8.99646 0.833374 8.33342V4.16675C0.833374 3.50371 1.09677 2.86782 1.56561 2.39898C2.03445 1.93014 2.67033 1.66675 3.33337 1.66675H16.6667C17.3298 1.66675 17.9656 1.93014 18.4345 2.39898C18.9033 2.86782 19.1667 3.50371 19.1667 4.16675V8.33342C19.1667 8.99646 18.9033 9.63234 18.4345 10.1012C17.9656 10.57 17.3298 10.8334 16.6667 10.8334H15C14.5398 10.8334 14.1667 10.4603 14.1667 10.0001C14.1667 9.53984 14.5398 9.16675 15 9.16675H16.6667C16.8877 9.16675 17.0997 9.07895 17.256 8.92267C17.4122 8.76639 17.5 8.55443 17.5 8.33342V4.16675C17.5 3.94573 17.4122 3.73377 17.256 3.57749C17.0997 3.42121 16.8877 3.33341 16.6667 3.33341H3.33337Z" fill="#151515"/>
<path fill-rule="evenodd" clip-rule="evenodd" d="M4.16663 6.66659C4.16663 6.20635 4.53972 5.83325 4.99996 5.83325H15C15.4602 5.83325 15.8333 6.20635 15.8333 6.66659C15.8333 7.12682 15.4602 7.49992 15 7.49992H4.99996C4.53972 7.49992 4.16663 7.12682 4.16663 6.66659Z" fill="#151515"/>
<path fill-rule="evenodd" clip-rule="evenodd" d="M11.6667 9.16675C12.1269 9.16675 12.5 9.53984 12.5 10.0001V16.2536C12.5116 16.4493 12.568 16.6397 12.6651 16.8101C12.7644 16.9843 12.9034 17.1326 13.0708 17.243C13.3275 17.4073 13.6355 17.4721 13.9368 17.4252C14.2392 17.3781 14.5139 17.2217 14.7086 16.9856C14.9034 16.7495 15.0048 16.4501 14.9936 16.1443C14.9824 15.8384 14.8594 15.5473 14.6478 15.3261C14.3297 14.9935 14.3414 14.466 14.6741 14.1478C15.0067 13.8297 15.5342 13.8415 15.8523 14.1741C16.3459 14.6902 16.633 15.3695 16.6592 16.0832C16.6853 16.7969 16.4487 17.4954 15.9942 18.0463C15.5397 18.5971 14.8989 18.9621 14.1932 19.072C13.4876 19.1819 12.7661 19.029 12.1656 18.6424L12.1597 18.6386L12.1597 18.6386C11.7706 18.3835 11.4476 18.0396 11.2172 17.6354C10.9868 17.2311 10.8555 16.778 10.8342 16.3132C10.8337 16.3005 10.8334 16.2878 10.8334 16.2751V10.0001C10.8334 9.53984 11.2065 9.16675 11.6667 9.16675Z" fill="#151515"/>
<path fill-rule="evenodd" clip-rule="evenodd" d="M8.33337 9.16675C8.79361 9.16675 9.16671 9.53984 9.16671 10.0001V14.1615C9.17143 14.5729 9.07453 14.9791 8.88457 15.3442C8.69362 15.7111 8.4146 16.025 8.07252 16.2576C7.73045 16.4901 7.33601 16.6342 6.92455 16.6768C6.5131 16.7195 6.09749 16.6594 5.715 16.5019C5.3325 16.3444 4.99506 16.0944 4.73292 15.7744C4.47079 15.4544 4.29215 15.0744 4.21303 14.6684C4.13391 14.2623 4.15677 13.843 4.27956 13.448C4.40236 13.053 4.62125 12.6946 4.91662 12.405C5.24525 12.0828 5.77287 12.088 6.09508 12.4167C6.41729 12.7453 6.41209 13.2729 6.08345 13.5951C5.985 13.6917 5.91203 13.8111 5.8711 13.9428C5.83017 14.0744 5.82255 14.2142 5.84892 14.3496C5.8753 14.4849 5.93484 14.6116 6.02222 14.7182C6.1096 14.8249 6.22208 14.9082 6.34958 14.9607C6.47708 15.0132 6.61561 15.0333 6.75276 15.0191C6.88991 15.0048 7.02139 14.9568 7.13542 14.8793C7.24945 14.8018 7.34245 14.6972 7.4061 14.5748C7.46975 14.4525 7.50206 14.3163 7.50012 14.1785L7.49996 14.1667H7.50004V10.0001C7.50004 9.53984 7.87314 9.16675 8.33337 9.16675Z" fill="#151515"/>
</svg>
