<svg width="24" height="24" viewBox="0 0 24 24" fill="none" xmlns="http://www.w3.org/2000/svg">
<g id="Camera">
<path id="Vector (Stroke)" fill-rule="evenodd" clip-rule="evenodd" d="M8.7297 3.35982C8.9197 3.13182 9.20115 3 9.49792 3H14.4979C14.7947 3 15.0762 3.13182 15.2661 3.35982L17.4663 6H19.9979C20.7936 6 21.5566 6.31607 22.1192 6.87868C22.6819 7.44129 22.9979 8.20435 22.9979 9V18C22.9979 18.7957 22.6819 19.5587 22.1192 20.1213C21.5566 20.6839 20.7936 21 19.9979 21H3.99792C3.20227 21 2.43921 20.6839 1.8766 20.1213C1.314 19.5587 0.997925 18.7956 0.997925 18V9C0.997925 8.20435 1.314 7.44129 1.8766 6.87868C2.43921 6.31607 3.20228 6 3.99792 6H6.52955L8.7297 3.35982ZM9.9663 5L7.76615 7.64018C7.57615 7.86818 7.2947 8 6.99792 8H3.99792C3.73271 8 3.47835 8.10536 3.29082 8.29289C3.10328 8.48043 2.99792 8.73478 2.99792 9V18C2.99792 18.2652 3.10328 18.5196 3.29082 18.7071C3.47835 18.8946 3.73271 19 3.99792 19H19.9979C20.2631 19 20.5175 18.8946 20.705 18.7071C20.8926 18.5196 20.9979 18.2652 20.9979 18V9C20.9979 8.73478 20.8926 8.48043 20.705 8.29289C20.5175 8.10536 20.2631 8 19.9979 8H16.9979C16.7011 8 16.4197 7.86818 16.2297 7.64018L14.0296 5H9.9663Z" fill="white"/>
<path id="Vector (Stroke)_2" fill-rule="evenodd" clip-rule="evenodd" d="M11.9979 11C10.8934 11 9.99792 11.8954 9.99792 13C9.99792 14.1046 10.8934 15 11.9979 15C13.1025 15 13.9979 14.1046 13.9979 13C13.9979 11.8954 13.1025 11 11.9979 11ZM7.99792 13C7.99792 10.7909 9.78879 9 11.9979 9C14.2071 9 15.9979 10.7909 15.9979 13C15.9979 15.2091 14.2071 17 11.9979 17C9.78879 17 7.99792 15.2091 7.99792 13Z" fill="white"/>
</g>
</svg>
