<svg width="20" height="20" viewBox="0 0 20 20" fill="none" xmlns="http://www.w3.org/2000/svg">
<g id="Email">
<path id="Vector (Stroke)" fill-rule="evenodd" clip-rule="evenodd" d="M3.33331 4.16667C2.87308 4.16667 2.49998 4.53976 2.49998 5V15C2.49998 15.4602 2.87308 15.8333 3.33331 15.8333H16.6666C17.1269 15.8333 17.5 15.4602 17.5 15V5C17.5 4.53976 17.1269 4.16667 16.6666 4.16667H3.33331ZM0.833313 5C0.833313 3.61929 1.9526 2.5 3.33331 2.5H16.6666C18.0474 2.5 19.1666 3.61929 19.1666 5V15C19.1666 16.3807 18.0474 17.5 16.6666 17.5H3.33331C1.9526 17.5 0.833313 16.3807 0.833313 15V5Z" fill="#151515"/>
<path id="Vector (Stroke)_2" fill-rule="evenodd" clip-rule="evenodd" d="M0.963349 5.38638C1.21019 4.99793 1.72519 4.88314 2.11363 5.12998L9.58599 9.8783C9.71022 9.95565 9.85365 9.99666 10 9.99666C10.1464 9.99666 10.2898 9.95565 10.4141 9.8783C10.4147 9.87791 10.4153 9.87752 10.4159 9.87714L17.8864 5.12998C18.2749 4.88314 18.7899 4.99793 19.0367 5.38638C19.2835 5.77482 19.1687 6.28982 18.7803 6.53666L11.3008 11.2895C10.9109 11.5338 10.4601 11.6633 10 11.6633C9.53993 11.6633 9.08914 11.5338 8.69925 11.2895L8.69474 11.2867L1.21975 6.53666C0.831307 6.28982 0.716511 5.77482 0.963349 5.38638Z" fill="#151515"/>
</g>
</svg>
