<svg width="20" height="20" viewBox="0 0 20 20" fill="none" xmlns="http://www.w3.org/2000/svg">
<path fill-rule="evenodd" clip-rule="evenodd" d="M7.50004 2.49992C6.837 2.49992 6.20111 2.76331 5.73227 3.23215C5.26343 3.70099 5.00004 4.33688 5.00004 4.99992V16.6666C5.00004 16.8876 5.08784 17.0996 5.24412 17.2558C5.4004 17.4121 5.61236 17.4999 5.83337 17.4999H14.1667C14.3877 17.4999 14.5997 17.4121 14.756 17.2558C14.9122 17.0996 15 16.8876 15 16.6666V4.99992C15 4.33688 14.7366 3.70099 14.2678 3.23215C13.799 2.76331 13.1631 2.49992 12.5 2.49992H7.50004ZM4.55376 2.05364C5.33516 1.27224 6.39497 0.833252 7.50004 0.833252H12.5C13.6051 0.833252 14.6649 1.27224 15.4463 2.05364C16.2277 2.83504 16.6667 3.89485 16.6667 4.99992V16.6666C16.6667 17.3296 16.4033 17.9655 15.9345 18.4344C15.4656 18.9032 14.8297 19.1666 14.1667 19.1666H5.83337C5.17033 19.1666 4.53445 18.9032 4.06561 18.4344C3.59677 17.9655 3.33337 17.3296 3.33337 16.6666V4.99992C3.33337 3.89485 3.77236 2.83504 4.55376 2.05364Z" fill="#151515"/>
<path fill-rule="evenodd" clip-rule="evenodd" d="M3.33337 8.33333C3.33337 7.8731 3.70647 7.5 4.16671 7.5H15.8334C16.2936 7.5 16.6667 7.8731 16.6667 8.33333C16.6667 8.79357 16.2936 9.16667 15.8334 9.16667H4.16671C3.70647 9.16667 3.33337 8.79357 3.33337 8.33333Z" fill="#151515"/>
<path fill-rule="evenodd" clip-rule="evenodd" d="M12.5 5C12.9602 5 13.3333 5.3731 13.3333 5.83333V10.8333C13.3333 11.2936 12.9602 11.6667 12.5 11.6667C12.0397 11.6667 11.6666 11.2936 11.6666 10.8333V5.83333C11.6666 5.3731 12.0397 5 12.5 5Z" fill="#151515"/>
</svg>
