<svg width="50" height="40" viewBox="0 0 50 40" fill="none" xmlns="http://www.w3.org/2000/svg">
<g id="Frame" clip-path="url(#clip0_1133_5644)">
<path id="Vector" d="M38.1579 40C44.7219 39.8689 50 34.6073 50 28.1389C50 24.9931 48.7257 21.9762 46.4573 19.7518L26.3158 0V12.2771C26.3158 14.3303 27.1476 16.2995 28.6282 17.7514L33.3464 22.3784L33.3593 22.3907L41.2706 30.149C41.5276 30.4009 41.5276 30.8094 41.2706 31.0613C41.0138 31.3133 40.5971 31.3133 40.3403 31.0613L37.6133 28.3871H12.3867L9.65974 31.0613C9.40282 31.3133 8.98627 31.3133 8.72935 31.0613C8.47242 30.8094 8.47242 30.4009 8.72934 30.149L16.6407 22.3907L16.6536 22.3784L21.3718 17.7514C22.8524 16.2995 23.6842 14.3303 23.6842 12.2771V0L3.5426 19.7518C1.27431 21.9762 0 24.9931 0 28.1389C0 34.6073 5.27808 39.8689 11.8421 40H38.1579Z" fill="#151515"/>
</g>
<defs>
<clipPath id="clip0_1133_5644">
<rect width="50" height="40" fill="white"/>
</clipPath>
</defs>
</svg>
