<svg width="18" height="18" viewBox="0 0 18 18" fill="none" xmlns="http://www.w3.org/2000/svg">
<g id="Ruble">
<path id="Vector (Stroke)" fill-rule="evenodd" clip-rule="evenodd" d="M5.99792 2.25C5.99792 1.83579 6.33371 1.5 6.74792 1.5H10.4979C11.4925 1.5 12.4463 1.89509 13.1496 2.59835C13.8528 3.30161 14.2479 4.25544 14.2479 5.25C14.2479 6.24456 13.8528 7.19839 13.1496 7.90165C12.4463 8.60491 11.4925 9 10.4979 9H7.49792V15.75C7.49792 16.1642 7.16214 16.5 6.74792 16.5C6.33371 16.5 5.99792 16.1642 5.99792 15.75V9H4.49792C4.08371 9 3.74792 8.66421 3.74792 8.25C3.74792 7.83579 4.08371 7.5 4.49792 7.5H5.99792V2.25ZM7.49792 7.5H10.4979C11.0947 7.5 11.667 7.26295 12.0889 6.84099C12.5109 6.41903 12.7479 5.84674 12.7479 5.25C12.7479 4.65326 12.5109 4.08097 12.0889 3.65901C11.667 3.23705 11.0947 3 10.4979 3H7.49792V7.5Z" fill="#151515"/>
<path id="Vector (Stroke)_2" fill-rule="evenodd" clip-rule="evenodd" d="M3.74792 11.25C3.74792 10.8358 4.08371 10.5 4.49792 10.5H10.4979C10.9121 10.5 11.2479 10.8358 11.2479 11.25C11.2479 11.6642 10.9121 12 10.4979 12H4.49792C4.08371 12 3.74792 11.6642 3.74792 11.25Z" fill="#151515"/>
</g>
</svg>
