<svg width="30" height="24" viewBox="0 0 30 24" fill="none" xmlns="http://www.w3.org/2000/svg">
<g id="Frame" clip-path="url(#clip0_1133_7156)">
<path id="Vector" d="M22.8947 24C26.8332 23.9213 30 20.7644 30 16.8833C30 14.9959 29.2354 13.1857 27.8744 11.8511L15.7895 0V7.36626C15.7895 8.59818 16.2885 9.7797 17.1769 10.6508L20.0079 13.427L20.0156 13.4344L24.7624 18.0894C24.9165 18.2405 24.9165 18.4856 24.7624 18.6368C24.6083 18.788 24.3583 18.788 24.2042 18.6368L22.568 17.0323H7.43204L5.79585 18.6368C5.64169 18.788 5.39176 18.788 5.23761 18.6368C5.08345 18.4856 5.08345 18.2405 5.2376 18.0894L9.98443 13.4344L9.99214 13.427L12.8231 10.6508C13.7115 9.7797 14.2105 8.59818 14.2105 7.36626V0L2.12556 11.8511C0.764584 13.1857 0 14.9959 0 16.8833C0 20.7644 3.16685 23.9213 7.10529 24H22.8947Z" fill="#007AFF"/>
</g>
<defs>
<clipPath id="clip0_1133_7156">
<rect width="30" height="24" fill="white"/>
</clipPath>
</defs>
</svg>
