<svg width="16" height="16" viewBox="0 0 16 16" fill="none" xmlns="http://www.w3.org/2000/svg">
<g id="Trash">
<rect width="16" height="16" transform="translate(-0.0020752)" fill="black" fill-opacity="0.1"/>
<path id="Vector (Stroke)" fill-rule="evenodd" clip-rule="evenodd" d="M1.33127 4.00004C1.33127 3.63185 1.62975 3.33337 1.99793 3.33337H13.9979C14.3661 3.33337 14.6646 3.63185 14.6646 4.00004C14.6646 4.36823 14.3661 4.66671 13.9979 4.66671H1.99793C1.62975 4.66671 1.33127 4.36823 1.33127 4.00004Z" fill="white"/>
<path id="Vector (Stroke)_2" fill-rule="evenodd" clip-rule="evenodd" d="M3.33125 3.33337C3.69944 3.33337 3.99791 3.63185 3.99791 4.00004V13.3334C3.99791 13.4499 4.06288 13.6222 4.21932 13.7786C4.37576 13.9351 4.54807 14 4.66458 14H11.3312C11.4478 14 11.6201 13.9351 11.7765 13.7786C11.9329 13.6222 11.9979 13.4499 11.9979 13.3334V4.00004C11.9979 3.63185 12.2964 3.33337 12.6646 3.33337C13.0328 3.33337 13.3312 3.63185 13.3312 4.00004V13.3334C13.3312 13.8835 13.0629 14.3779 12.7193 14.7214C12.3758 15.065 11.8814 15.3334 11.3312 15.3334H4.66458C4.11443 15.3334 3.62007 15.065 3.27651 14.7214C2.93295 14.3779 2.66458 13.8835 2.66458 13.3334V4.00004C2.66458 3.63185 2.96306 3.33337 3.33125 3.33337Z" fill="white"/>
<path id="Vector (Stroke)_3" fill-rule="evenodd" clip-rule="evenodd" d="M6.21932 2.22136C6.06288 2.3778 5.99791 2.55011 5.99791 2.66663V3.99996C5.99791 4.36815 5.69944 4.66663 5.33125 4.66663C4.96306 4.66663 4.66458 4.36815 4.66458 3.99996V2.66663C4.66458 2.11647 4.93295 1.62212 5.27651 1.27855C5.62007 0.934991 6.11443 0.666626 6.66458 0.666626H9.33125C9.8814 0.666626 10.3758 0.934991 10.7193 1.27855C11.0629 1.62212 11.3312 2.11647 11.3312 2.66663V3.99996C11.3312 4.36815 11.0328 4.66663 10.6646 4.66663C10.2964 4.66663 9.99791 4.36815 9.99791 3.99996V2.66663C9.99791 2.55011 9.93295 2.3778 9.77651 2.22136C9.62007 2.06493 9.44776 1.99996 9.33125 1.99996H6.66458C6.54807 1.99996 6.37576 2.06493 6.21932 2.22136Z" fill="white"/>
<path id="Vector (Stroke)_4" fill-rule="evenodd" clip-rule="evenodd" d="M6.66459 6.66663C7.03278 6.66663 7.33126 6.9651 7.33126 7.33329V11.3333C7.33126 11.7015 7.03278 12 6.66459 12C6.2964 12 5.99792 11.7015 5.99792 11.3333V7.33329C5.99792 6.9651 6.2964 6.66663 6.66459 6.66663Z" fill="white"/>
<path id="Vector (Stroke)_5" fill-rule="evenodd" clip-rule="evenodd" d="M9.33125 6.66663C9.69944 6.66663 9.99791 6.9651 9.99791 7.33329V11.3333C9.99791 11.7015 9.69944 12 9.33125 12C8.96306 12 8.66458 11.7015 8.66458 11.3333V7.33329C8.66458 6.9651 8.96306 6.66663 9.33125 6.66663Z" fill="white"/>
</g>
</svg>
