<svg width="20" height="20" viewBox="0 0 20 20" fill="none" xmlns="http://www.w3.org/2000/svg">
<path fill-rule="evenodd" clip-rule="evenodd" d="M1.66675 5.00008C1.66675 4.53984 2.03984 4.16675 2.50008 4.16675H5.00008C5.46032 4.16675 5.83341 4.53984 5.83341 5.00008C5.83341 5.46032 5.46032 5.83341 5.00008 5.83341H2.50008C2.03984 5.83341 1.66675 5.46032 1.66675 5.00008Z" fill="#151515"/>
<path fill-rule="evenodd" clip-rule="evenodd" d="M13.3333 5.00008C13.3333 4.53984 13.7063 4.16675 14.1666 4.16675H14.1749C14.6352 4.16675 15.0083 4.53984 15.0083 5.00008C15.0083 5.46032 14.6352 5.83341 14.1749 5.83341H14.1666C13.7063 5.83341 13.3333 5.46032 13.3333 5.00008Z" fill="#151515"/>
<path fill-rule="evenodd" clip-rule="evenodd" d="M4.16675 2.49992C3.70651 2.49992 3.33341 2.87301 3.33341 3.33325V16.6666C3.33341 17.1268 3.70651 17.4999 4.16675 17.4999H15.8334C16.2937 17.4999 16.6667 17.1268 16.6667 16.6666V3.33325C16.6667 2.87301 16.2937 2.49992 15.8334 2.49992H4.16675ZM1.66675 3.33325C1.66675 1.95254 2.78604 0.833252 4.16675 0.833252H15.8334C17.2141 0.833252 18.3334 1.95254 18.3334 3.33325V16.6666C18.3334 18.0473 17.2141 19.1666 15.8334 19.1666H4.16675C2.78604 19.1666 1.66675 18.0473 1.66675 16.6666V3.33325Z" fill="#151515"/>
<path fill-rule="evenodd" clip-rule="evenodd" d="M10 7.49992C8.15905 7.49992 6.66667 8.9923 6.66667 10.8333C6.66667 12.6742 8.15905 14.1666 10 14.1666C11.8409 14.1666 13.3333 12.6742 13.3333 10.8333C13.3333 8.9923 11.8409 7.49992 10 7.49992ZM5 10.8333C5 8.07183 7.23858 5.83325 10 5.83325C12.7614 5.83325 15 8.07183 15 10.8333C15 13.5947 12.7614 15.8333 10 15.8333C7.23858 15.8333 5 13.5947 5 10.8333Z" fill="#151515"/>
<path fill-rule="evenodd" clip-rule="evenodd" d="M9.99992 7.49992C9.6684 7.49992 9.35046 7.63161 9.11604 7.86604C8.88161 8.10046 8.74992 8.4184 8.74992 8.74992C8.74992 9.08144 8.88161 9.39938 9.11604 9.6338C9.35046 9.86822 9.6684 9.99992 9.99992 9.99992C10.7735 9.99992 11.5153 10.3072 12.0623 10.8542C12.6093 11.4012 12.9166 12.143 12.9166 12.9166C12.9166 13.6901 12.6093 14.432 12.0623 14.979C11.5153 15.526 10.7735 15.8333 9.99992 15.8333C9.53968 15.8333 9.16659 15.4602 9.16659 14.9999C9.16659 14.5397 9.53968 14.1666 9.99992 14.1666C10.3314 14.1666 10.6494 14.0349 10.8838 13.8005C11.1182 13.566 11.2499 13.2481 11.2499 12.9166C11.2499 12.5851 11.1182 12.2671 10.8838 12.0327C10.6494 11.7983 10.3314 11.6666 9.99992 11.6666C9.22637 11.6666 8.4845 11.3593 7.93752 10.8123C7.39054 10.2653 7.08325 9.52347 7.08325 8.74992C7.08325 7.97637 7.39054 7.2345 7.93752 6.68752C8.4845 6.14054 9.22637 5.83325 9.99992 5.83325C10.4602 5.83325 10.8333 6.20635 10.8333 6.66659C10.8333 7.12682 10.4602 7.49992 9.99992 7.49992Z" fill="#151515"/>
</svg>
