<svg width="20" height="20" viewBox="0 0 20 20" fill="none" xmlns="http://www.w3.org/2000/svg">
<path fill-rule="evenodd" clip-rule="evenodd" d="M9.16675 16.6666C9.16675 16.2063 9.53984 15.8333 10.0001 15.8333H10.0084C10.4687 15.8333 10.8417 16.2063 10.8417 16.6666C10.8417 17.1268 10.4687 17.4999 10.0084 17.4999H10.0001C9.53984 17.4999 9.16675 17.1268 9.16675 16.6666Z" fill="#151515"/>
<path fill-rule="evenodd" clip-rule="evenodd" d="M9.99993 5.00016C7.13019 5.00016 4.36112 6.05785 2.22215 7.97101C1.87911 8.27783 1.35229 8.24848 1.04546 7.90543C0.738638 7.56239 0.767997 7.03557 1.11104 6.72875C3.55558 4.54228 6.72023 3.3335 9.99993 3.3335C13.2796 3.3335 16.4443 4.54228 18.8888 6.72875C19.2319 7.03557 19.2612 7.56239 18.9544 7.90543C18.6476 8.24848 18.1207 8.27783 17.7777 7.97101C15.6387 6.05785 12.8697 5.00016 9.99993 5.00016Z" fill="#151515"/>
<path fill-rule="evenodd" clip-rule="evenodd" d="M9.99992 9.16691C8.03677 9.16691 6.15189 9.93664 4.74992 11.3108C4.42124 11.633 3.89363 11.6277 3.57147 11.2991C3.2493 10.9704 3.25458 10.4428 3.58325 10.1206C5.29677 8.44102 7.60052 7.50024 9.99992 7.50024C12.3993 7.50024 14.7031 8.44102 16.4166 10.1206C16.7453 10.4428 16.7505 10.9704 16.4284 11.2991C16.1062 11.6277 15.5786 11.633 15.2499 11.3108C13.848 9.93664 11.9631 9.16691 9.99992 9.16691Z" fill="#151515"/>
<path fill-rule="evenodd" clip-rule="evenodd" d="M10 13.3332C9.12749 13.3332 8.28976 13.6753 7.66667 14.286C7.33799 14.6082 6.81038 14.6029 6.48821 14.2742C6.16605 13.9456 6.17133 13.418 6.5 13.0958C7.43464 12.1797 8.69124 11.6665 10 11.6665C11.3088 11.6665 12.5654 12.1797 13.5 13.0958C13.8287 13.418 13.834 13.9456 13.5118 14.2742C13.1896 14.6029 12.662 14.6082 12.3333 14.286C11.7102 13.6753 10.8725 13.3332 10 13.3332Z" fill="#151515"/>
</svg>
